<?xml version="1.0" encoding="utf-8"?>
<!-- Generator: Adobe Illustrator 16.0.0, SVG Export Plug-In . SVG Version: 6.00 Build 0)  -->
<!DOCTYPE svg PUBLIC "-//W3C//DTD SVG 1.1//EN" "http://www.w3.org/Graphics/SVG/1.1/DTD/svg11.dtd">
<svg version="1.1" id="Layer_1" xmlns="http://www.w3.org/2000/svg" xmlns:xlink="http://www.w3.org/1999/xlink" x="0px" y="0px"
	 width="54.628px" height="54.628px" viewBox="0 0 54.628 54.628" enable-background="new 0 0 54.628 54.628" xml:space="preserve">
<g>
	<path fill="#D6D6D6" d="M19.991,36.706l0.002-0.003c-0.089-0.07-0.183-0.133-0.27-0.205C19.88,36.624,19.991,36.706,19.991,36.706z
		"/>
	<polygon fill="#D6D6D6" points="18.453,35.277 18.447,35.271 18.447,35.271 	"/>
	<path fill="#D6D6D6" d="M28.138,27.405c0.156-0.049,0.312-0.097,0.47-0.142c-0.3-0.677-0.626-1.355-0.967-2.023
		c-6.135,1.836-12.023,1.701-12.232,1.696c-0.004,0.126-0.01,0.251-0.01,0.378c0,3.059,1.153,5.848,3.048,7.957
		C18.449,35.266,21.711,29.483,28.138,27.405z"/>
	<path fill="#D6D6D6" d="M26.654,23.403c-2.061-3.662-4.262-6.648-4.424-6.865c-3.323,1.57-5.803,4.63-6.576,8.318
		C15.967,24.863,20.933,24.922,26.654,23.403z"/>
	<path fill="#D6D6D6" d="M35.183,18.372c-2.099-1.848-4.853-2.972-7.869-2.972c-0.968,0-1.907,0.119-2.808,0.336
		c0.181,0.24,2.418,3.211,4.455,6.951C33.451,21.003,35.15,18.422,35.183,18.372z"/>
	<path fill="#D6D6D6" d="M24.459,15.747c-0.013,0.003-0.025,0.005-0.037,0.009C24.444,15.75,24.458,15.748,24.459,15.747
		L24.459,15.747z"/>
	<path fill="#D6D6D6" d="M29.34,29.264c-7.035,2.45-9.328,7.396-9.347,7.438c2.021,1.578,4.559,2.525,7.321,2.525
		c1.65,0,3.222-0.335,4.651-0.942c-0.177-1.046-0.87-4.694-2.545-9.048C29.394,29.247,29.368,29.254,29.34,29.264z"/>
	<path fill="#D6D6D6" d="M27.315,0C12.229,0,0,12.229,0,27.315c0,15.084,12.229,27.313,27.315,27.313
		c15.083,0,27.313-12.229,27.313-27.313C54.628,12.229,42.398,0,27.315,0z M40.981,30.124c-0.184,0.897-0.457,1.778-0.814,2.622
		c-0.35,0.827-0.783,1.625-1.287,2.371c-0.5,0.737-1.071,1.431-1.702,2.062c-0.632,0.631-1.325,1.205-2.064,1.703
		c-0.746,0.504-1.544,0.936-2.371,1.287c-0.842,0.355-1.725,0.63-2.621,0.813c-0.919,0.188-1.865,0.284-2.809,0.284
		c-0.946,0-1.892-0.096-2.811-0.284c-0.896-0.183-1.778-0.458-2.621-0.813c-0.828-0.351-1.625-0.783-2.371-1.287
		c-0.739-0.499-1.432-1.072-2.062-1.703c-0.632-0.631-1.205-1.325-1.703-2.062c-0.504-0.746-0.937-1.544-1.287-2.371
		c-0.358-0.844-0.631-1.725-0.814-2.622c-0.187-0.918-0.283-1.863-0.283-2.81c0-0.945,0.096-1.89,0.283-2.809
		c0.184-0.897,0.457-1.78,0.814-2.621c0.35-0.828,0.783-1.626,1.287-2.372c0.499-0.737,1.071-1.432,1.703-2.062
		c0.63-0.631,1.324-1.203,2.062-1.703c0.746-0.503,1.543-0.937,2.371-1.287c0.843-0.356,1.725-0.63,2.621-0.814
		c0.919-0.188,1.864-0.283,2.811-0.283c0.944,0,1.89,0.095,2.809,0.283c0.896,0.184,1.779,0.458,2.621,0.814
		c0.827,0.35,1.625,0.783,2.371,1.287c0.739,0.5,1.432,1.072,2.064,1.703c0.63,0.631,1.202,1.325,1.702,2.062
		c0.504,0.746,0.938,1.544,1.287,2.372c0.357,0.841,0.63,1.724,0.814,2.621c0.187,0.919,0.283,1.864,0.283,2.809
		C41.265,28.26,41.168,29.205,40.981,30.124z"/>
	<path fill="#D6D6D6" d="M29.877,24.462c0.276,0.568,0.543,1.146,0.792,1.728c0.088,0.207,0.172,0.411,0.257,0.616
		c4.115-0.518,8.166,0.36,8.298,0.389c-0.028-2.827-1.039-5.419-2.71-7.449C36.488,19.784,34.578,22.542,29.877,24.462z"/>
	<path fill="#D6D6D6" d="M31.652,28.687c1.564,4.299,2.198,7.796,2.319,8.51c2.675-1.807,4.575-4.671,5.105-7.992
		C38.839,29.126,35.504,28.07,31.652,28.687z"/>
</g>
</svg>
