
<!DOCTYPE svg PUBLIC "-//W3C//DTD SVG 1.1//EN" "http://www.w3.org/Graphics/SVG/1.1/DTD/svg11.dtd">
<svg version="1.1" id="Layer_1" xmlns="http://www.w3.org/2000/svg" xmlns:xlink="http://www.w3.org/1999/xlink" x="0px" y="0px"
	 width="54.628px" height="54.629px" viewBox="0 0 54.628 54.629" enable-background="new 0 0 54.628 54.629" xml:space="preserve">
<path d="M27.314,0C12.229,0,0,12.229,0,27.314C0,42.4,12.229,54.629,27.314,54.629
	c15.085,0,27.314-12.229,27.314-27.314C54.628,12.229,42.399,0,27.314,0z M33.3,27.314h-3.843v13.919h-5.759V27.314H20.82v-4.799
	h2.878v-2.879c0-3.914,1.625-6.242,6.24-6.242h3.843v4.799H31.38c-1.797,0-1.917,0.67-1.917,1.922l-0.006,2.4h4.353L33.3,27.314z"/>
</svg>
