
<!DOCTYPE svg PUBLIC "-//W3C//DTD SVG 1.1//EN" "http://www.w3.org/Graphics/SVG/1.1/DTD/svg11.dtd">
<svg version="1.1" id="Layer_1" xmlns="http://www.w3.org/2000/svg" xmlns:xlink="http://www.w3.org/1999/xlink" x="0px" y="0px"
	 width="54.629px" height="54.629px" viewBox="0 0 54.629 54.629" enable-background="new 0 0 54.629 54.629" xml:space="preserve">
<g>
	<path d="M19.907,30.916c-3.457-0.037-6.554,2.109-6.554,4.684c0,2.629,2.496,4.818,5.954,4.818
		c4.858,0,6.553-2.055,6.553-4.684c0-0.316-0.038-0.629-0.11-0.93c-0.379-1.486-1.726-2.225-3.603-3.531
		C21.467,31.055,20.713,30.924,19.907,30.916z"/>
	<path d="M27.315,0C12.229,0,0,12.23,0,27.312c0,15.086,12.229,27.316,27.315,27.316
		c15.085,0,27.313-12.23,27.313-27.316C54.629,12.23,42.4,0,27.315,0z M26.929,19.432c0,1.902-1.055,3.539-2.544,4.703
		c-1.452,1.135-1.729,1.611-1.729,2.576c0,0.824,1.558,2.225,2.372,2.801c2.378,1.684,3.148,3.246,3.148,5.854
		c0,3.256-3.148,6.49-8.851,6.49c-5.003,0-9.224-2.035-9.224-5.289c0-3.303,3.851-6.488,8.852-6.488
		c0.546,0,1.044-0.014,1.562-0.014c-0.686-0.666-1.227-1.484-1.227-2.49c0-0.596,0.19-1.17,0.458-1.682
		c-0.273,0.02-0.551,0.025-0.835,0.025c-4.108,0-6.861-2.922-6.861-6.545c0-3.541,3.801-6.6,7.838-6.6h9.007l-2.016,1.455h-2.855
		C25.919,14.957,26.929,17.166,26.929,19.432z M44.521,20.412h-5.473v5.473h-2.166v-5.473h-5.473v-2.166h5.473v-5.473h2.166v5.473
		h5.473V20.412z"/>
	<path d="M18.765,14.047c-2.319-0.068-3.875,2.264-3.475,5.311s2.605,5.574,4.926,5.645
		c2.319,0.066,3.876-2.346,3.475-5.395C23.291,16.562,21.084,14.119,18.765,14.047z"/>
</g>
</svg>
