
<!DOCTYPE svg PUBLIC "-//W3C//DTD SVG 1.1//EN" "http://www.w3.org/Graphics/SVG/1.1/DTD/svg11.dtd">
<svg version="1.1" id="Layer_1" xmlns="http://www.w3.org/2000/svg" xmlns:xlink="http://www.w3.org/1999/xlink" x="0px" y="0px"
	 width="54.628px" height="54.628px" viewBox="0 0 54.628 54.628" enable-background="new 0 0 54.628 54.628" xml:space="preserve">
<path d="M27.315,0C12.23,0,0,12.229,0,27.314c0,15.085,12.23,27.314,27.315,27.314s27.312-12.229,27.312-27.314
	C54.628,12.229,42.4,0,27.315,0z M19.543,40.064h-5.416V22.74h5.416V40.064z M16.698,20.574H16.66c-1.96,0-3.23-1.325-3.23-3.003
	c0-1.709,1.309-3.007,3.308-3.007c1.996,0,3.225,1.293,3.264,3.004C20.001,19.245,18.733,20.574,16.698,20.574z M41.198,40.064
	h-6.135v-8.963c0-2.348-0.961-3.949-3.074-3.949c-1.613,0-2.511,1.081-2.931,2.124c-0.157,0.373-0.133,0.893-0.133,1.413v9.375
	h-6.079c0,0,0.077-15.88,0-17.324h6.079v2.72c0.361-1.189,2.303-2.886,5.404-2.886c3.844,0,6.868,2.493,6.868,7.857V40.064z"/>
</svg>
