
<!DOCTYPE svg PUBLIC "-//W3C//DTD SVG 1.1//EN" "http://www.w3.org/Graphics/SVG/1.1/DTD/svg11.dtd">
<svg version="1.1" id="Layer_1" xmlns="http://www.w3.org/2000/svg" xmlns:xlink="http://www.w3.org/1999/xlink" x="0px" y="0px"
	 width="54.629px" height="54.628px" viewBox="0 0 54.629 54.628" enable-background="new 0 0 54.629 54.628" xml:space="preserve">
<path d="M27.315,0C12.229,0,0,12.229,0,27.314c0,15.084,12.229,27.314,27.315,27.314
	c15.085,0,27.313-12.229,27.313-27.314C54.629,12.229,42.4,0,27.315,0z M29.636,34.018c-1.865,0-3.622-1.009-4.222-2.155
	c0,0-1.005,3.983-1.216,4.752c-0.749,2.716-2.953,5.436-3.122,5.658c-0.119,0.155-0.384,0.106-0.411-0.099
	c-0.047-0.347-0.608-3.774,0.053-6.571c0.331-1.404,2.224-9.422,2.224-9.422s-0.553-1.104-0.553-2.736
	c0-2.562,1.486-4.475,3.335-4.475c1.572,0,2.331,1.18,2.331,2.596c0,1.581-1.006,3.944-1.524,6.135
	c-0.436,1.834,0.919,3.331,2.727,3.331c3.276,0,5.482-4.208,5.482-9.193c0-3.789-2.55-6.626-7.194-6.626
	c-5.244,0-8.513,3.912-8.513,8.281c0,1.506,0.445,2.57,1.142,3.391c0.319,0.378,0.364,0.53,0.248,0.964
	c-0.083,0.319-0.272,1.084-0.352,1.388c-0.115,0.438-0.471,0.595-0.866,0.433c-2.416-0.986-3.541-3.631-3.541-6.605
	c0-4.911,4.143-10.801,12.357-10.801c6.602,0,10.946,4.776,10.946,9.905C38.967,28.951,35.196,34.018,29.636,34.018z"/>
</svg>
