
<!DOCTYPE svg PUBLIC "-//W3C//DTD SVG 1.1//EN" "http://www.w3.org/Graphics/SVG/1.1/DTD/svg11.dtd">
<svg version="1.1" id="Layer_1" xmlns="http://www.w3.org/2000/svg" xmlns:xlink="http://www.w3.org/1999/xlink" x="0px" y="0px"
	 width="54.628px" height="54.628px" viewBox="0 0 54.628 54.628" enable-background="new 0 0 54.628 54.628" xml:space="preserve">
<path d="M27.314,0C12.229,0,0,12.229,0,27.314c0,15.084,12.229,27.314,27.314,27.314
	c15.084,0,27.314-12.23,27.314-27.314C54.628,12.229,42.398,0,27.314,0z M39.223,22.361c0.012,0.264,0.018,0.529,0.018,0.795
	c0,8.12-6.181,17.483-17.483,17.483c-3.47,0-6.7-1.018-9.419-2.761c0.48,0.057,0.971,0.086,1.466,0.086
	c2.879,0,5.528-0.982,7.632-2.631c-2.689-0.049-4.958-1.826-5.741-4.267c0.375,0.072,0.76,0.111,1.157,0.111
	c0.561,0,1.103-0.075,1.619-0.216c-2.812-0.565-4.929-3.048-4.929-6.025c0-0.026,0-0.052,0.001-0.078
	c0.828,0.46,1.775,0.736,2.783,0.769c-1.649-1.102-2.734-2.983-2.734-5.114c0-1.127,0.303-2.182,0.832-3.089
	c3.03,3.717,7.559,6.163,12.665,6.42c-0.105-0.45-0.16-0.918-0.16-1.4c0-3.393,2.752-6.144,6.146-6.144
	c1.767,0,3.363,0.746,4.485,1.94c1.4-0.275,2.715-0.787,3.902-1.492c-0.459,1.435-1.433,2.639-2.702,3.4
	c1.243-0.148,2.428-0.479,3.529-0.968C41.465,20.413,40.423,21.495,39.223,22.361z"/>
</svg>
