<svg xmlns="http://www.w3.org/2000/svg" style="display:none"><symbol id="ellipse-fb" viewbox="0 0 41 41"><path class="ellipse-fb" fill="#7dc9c3" d="M20.5 41C9.2 41 0 31.8 0 20.5S9.2 0 20.5 0 41 9.2 41 20.5 31.8 41 20.5 41zm0-40C9.7 1 1 9.7 1 20.5S9.7 40 20.5 40 40 31.3 40 20.5 31.3 1 20.5 1zm.7 28.1v-8.6H24l.4-2.8h-3.3v-1.4c0-.7.2-1.5 1.3-1.5h2.1V12h-3c-2.5 0-3.2 1.7-3.2 4v1.7h-1.7v2.8h1.7v8.6h2.9z"/></symbol><symbol id="ellipse-inst" viewbox="0 0 41 41"><path class="ellipse-inst" fill="#7dc9c3" d="M20.5 41C9.2 41 0 31.8 0 20.5S9.2 0 20.5 0 41 9.2 41 20.5 31.8 41 20.5 41zm0-40C9.7 1 1 9.7 1 20.5S9.7 40 20.5 40 40 31.3 40 20.5 31.3 1 20.5 1zm6.3 11.1H14.2c-1.2 0-2.1.9-2.1 2.1V27c0 1.2.9 2.1 2.1 2.1h12.6c1.2 0 2.1-.9 2.1-2.1V14.2c0-1.2-.9-2.1-2.1-2.1zm.1 14.9c0 .1 0 .1-.1.1H14.2c-.1 0-.1 0-.1-.1V14.2c0-.1 0-.1.1-.1h12.6c.1 0 .1 0 .1.1V27zm-3.5-11.5h2.3v2.1h-2.3v-2.1zm-2.9 3.7c1.2 0 2.2 1 2.2 2.2 0 1.2-1 2.2-2.2 2.2-1.2 0-2.2-1-2.2-2.2 0-1.2 1-2.2 2.2-2.2zm3.6 2.2c0 2-1.6 3.6-3.6 3.6s-3.6-1.6-3.6-3.6v-1.6h-1.6v5.9h10.3v-5.9H24l.1 1.6z"/></symbol><symbol id="ellipse-vk" viewbox="0 0 41 41"><path class="ellipse-vk" fill="#7dc9c3" d="M20.5 41C9.2 41 0 31.8 0 20.5S9.2 0 20.5 0 41 9.2 41 20.5 31.8 41 20.5 41zm0-40C9.7 1 1 9.7 1 20.5S9.7 40 20.5 40 40 31.3 40 20.5 31.3 1 20.5 1zM27 21c-.8-.7-1.7-1.2-2.8-1.4v-.1c.8-.3 1.4-.8 1.9-1.4.5-.6.7-1.4.7-2.2 0-.7-.2-1.3-.5-1.9-.4-.6-.9-1-1.5-1.3-.6-.3-1.3-.5-2-.6-1-.1-2.1-.2-3.1-.1H13v17h7.5c1.1 0 2.2-.1 3.2-.3.8-.2 1.6-.6 2.3-1.1.6-.4 1.1-1 1.4-1.6.4-.7.6-1.4.5-2.2.2-1-.2-2-.9-2.8zm-5.2-3.2c-.2.3-.4.5-.8.7-.3.1-.7.2-1 .2h-2.3v-3.6H19.9c.4 0 .7.1 1.1.2.3.1.6.3.7.6.1.3.2.5.2.8.1.4 0 .8-.1 1.1zm1.1 7c-.2.3-.6.6-.9.7-.5.2-.9.3-1.4.3h-2.8v-4.3h2.9c.4 0 .8.1 1.2.2.4.1.8.3 1.1.7.3.4.4.8.3 1.2-.1.5-.2.9-.4 1.2z"/></symbol></svg>